<?xml version="1.0" encoding="iso-8859-1"?>
<!-- Generator: Adobe Illustrator 19.0.0, SVG Export Plug-In . SVG Version: 6.00 Build 0)  -->
<svg version="1.1" id="Capa_1" xmlns="http://www.w3.org/2000/svg" xmlns:xlink="http://www.w3.org/1999/xlink" x="0px" y="0px"
	 viewBox="0 0 512.001 512.001" style="enable-background:new 0 0 512.001 512.001;" xml:space="preserve">
<g>
	<g>
		<path d="M301.687,167.886L175.882,293.688c-23.73,23.73-45.084,54.655-59.769,82.044c-3.122,5.825-2.076,13.006,2.587,17.688
			c4.666,4.682,11.845,5.759,17.677,2.651c29.251-15.577,59.559-37.584,81.931-59.956l125.807-125.803L301.687,167.886z"/>
	</g>
</g>
<g>
	<g>
		<path d="M503.213,114.854L397.147,8.788c-11.715-11.717-30.71-11.717-42.426,0c-11.717,11.715-11.717,30.71,0,42.426
			L460.787,157.28c11.715,11.717,30.71,11.717,42.426,0C514.93,145.565,514.93,126.57,503.213,114.854z"/>
	</g>
</g>
<g>
	<g>
		<polygon points="336.473,75.392 308.189,131.961 380.039,203.812 436.608,175.525 		"/>
	</g>
</g>
<g>
	<g>
		<path d="M255.649,362.413l-10.607-10.605l-5.521,5.521c-24.196,24.196-56.647,47.968-89.037,65.215
			c-17.547,9.384-38.853,6.224-52.971-7.894c-14.108-14.108-17.278-35.424-7.872-53.033c17.732-33.063,41.42-65.535,65.026-89.141
			l5.521-5.521l-10.605-10.607c-17.547-17.545-46.093-17.545-63.64,0l-20.55,20.55C8.847,333.442-13.204,416.482,7.833,493.639
			c0.694,2.558,2.051,4.849,3.864,6.661c1.813,1.811,4.102,3.17,6.66,3.864c77.146,21.046,160.197-1.016,216.742-57.561l20.55-20.55
			C273.196,408.506,273.196,379.96,255.649,362.413z"/>
	</g>
</g>
<g>
</g>
<g>
</g>
<g>
</g>
<g>
</g>
<g>
</g>
<g>
</g>
<g>
</g>
<g>
</g>
<g>
</g>
<g>
</g>
<g>
</g>
<g>
</g>
<g>
</g>
<g>
</g>
<g>
</g>
</svg>
